<?xml version="1.0" encoding="utf-8"?>
<!-- Generator: Adobe Illustrator 19.0.0, SVG Export Plug-In . SVG Version: 6.00 Build 0)  -->
<svg version="1.1" id="Warstwa_1" xmlns="http://www.w3.org/2000/svg" xmlns:xlink="http://www.w3.org/1999/xlink" x="0px" y="0px"
	 viewBox="0 0 744.2 204" style="enable-background:new 0 0 744.2 204;" xml:space="preserve">
<style type="text/css">
	.st0{fill:#333333;}
	.st1{fill:url(#XMLID_20_);}
	.st2{fill:url(#XMLID_21_);}
</style>
<g id="XMLID_70_">
	<path id="XMLID_46_" class="st0" d="M360.1,19.4c4.4,3.2,7.2,7.5,8.4,13L356,34.9c-0.4-2.9-1.8-5.2-4-6.9s-5-2.6-8.1-2.6
		c-3,0-5.4,0.7-7.3,2.2s-2.8,3.3-2.8,5.4c0,3.4,2.1,5.5,6.2,6.3l13.2,2.7c5.1,1.1,9.1,3.1,11.9,6.1c2.9,3,4.3,6.8,4.3,11.5
		c0,5.9-2.2,10.7-6.7,14.2c-4.5,3.5-10.4,5.2-17.8,5.2c-6.8,0-12.6-1.6-17.4-4.7c-4.8-3.2-7.6-7.7-8.3-13.6l13.2-2.7
		c1.6,6.7,6.2,10,13.8,10c3.5,0,6.2-0.7,8.1-2.2s2.9-3.3,2.9-5.6c0-1.8-0.5-3.3-1.6-4.3c-1.1-1-2.9-1.8-5.6-2.4L336.8,51
		c-10.8-2.3-16.2-8.2-16.2-17.7c0-5.6,2.1-10.1,6.3-13.6c4.2-3.5,9.9-5.2,17.1-5.2C350.3,14.6,355.7,16.2,360.1,19.4z"/>
	<path id="XMLID_57_" class="st0" d="M422.1,77.6h-40.8v-7.9L406,41.7h-24v-9.9h39v8.1l-24.7,27.9h25.8V77.6z"/>
	<path id="XMLID_71_" class="st0" d="M455.6,93.3h-13.5l7.4-17.1l-19-44.5h13.5L456.1,61l12.7-29.3h13.5L455.6,93.3z"/>
	<path id="XMLID_76_" class="st0" d="M563.6,35.5c3.5,3.5,5.2,7.9,5.2,13.4v28.7h-12.1V51.4c0-3-0.9-5.4-2.6-7.2
		c-1.7-1.8-3.9-2.7-6.4-2.7c-3.3,0-5.9,1.2-7.8,3.5c-1.9,2.4-2.9,5.9-2.9,10.5v22.1H525V51.4c0-3-0.9-5.4-2.6-7.2
		c-1.7-1.8-3.9-2.7-6.4-2.7c-3.3,0-5.9,1.2-7.7,3.5s-2.8,5.9-2.8,10.6v22.1h-12.1V31.7h12.1v3.8c3.4-3.4,8-5.2,13.7-5.2
		c6.6,0,11.7,2.5,15.1,7.5c4-5,9.6-7.5,16.7-7.5C555.9,30.3,560.1,32.1,563.6,35.5z"/>
	<path id="XMLID_78_" class="st0" d="M623.2,37.4c4.8,4.5,7.2,10.3,7.2,17.3c0,7.1-2.4,12.8-7.2,17.3c-4.8,4.5-10.7,6.8-17.5,6.8
		c-7,0-12.9-2.3-17.8-6.8c-4.8-4.5-7.3-10.3-7.3-17.3c0-7.1,2.4-12.8,7.3-17.3c4.8-4.5,10.8-6.8,17.8-6.8
		C612.5,30.6,618.4,32.9,623.2,37.4z M614.7,64.6c2.6-2.5,4-5.8,4-9.9s-1.3-7.3-4-9.9c-2.6-2.5-5.6-3.8-9-3.8
		c-3.5,0-6.6,1.3-9.2,3.8s-4,5.8-4,9.9c0,4.1,1.3,7.4,4,9.9c2.7,2.5,5.8,3.8,9.2,3.8C609,68.4,612,67.1,614.7,64.6z"/>
	<path id="XMLID_81_" class="st0" d="M683.2,35.7c3.4,3.6,5.1,8.2,5.1,13.9v28h-12.1V52.2c0-3.3-0.8-5.9-2.5-7.8
		c-1.7-2-3.9-2.9-6.8-2.9c-7.6,0-11.4,5.3-11.4,15.8v20.3h-12.1V31.7h12.1v4.1c3.7-3.7,8.5-5.5,14.4-5.5
		C675.4,30.3,679.8,32.1,683.2,35.7z"/>
	<path id="XMLID_127_" class="st0" d="M360.6,189.6L337.1,165H334v24.7h-12.5V128H334v25.7h2.1L360,128h15.5l-28.3,30.9l30.3,30.7
		H360.6z"/>
	<path id="XMLID_129_" class="st0" d="M423.6,149.4c4.8,4.5,7.2,10.3,7.2,17.3c0,7.1-2.4,12.8-7.2,17.3s-10.7,6.8-17.5,6.8
		c-7,0-12.9-2.3-17.8-6.8s-7.3-10.3-7.3-17.3c0-7.1,2.4-12.8,7.3-17.3s10.8-6.8,17.8-6.8C413,142.6,418.8,144.9,423.6,149.4z
		 M415.1,176.6c2.6-2.5,4-5.8,4-9.9c0-4-1.3-7.3-4-9.9c-2.6-2.5-5.6-3.8-9-3.8c-3.5,0-6.6,1.3-9.2,3.8c-2.7,2.5-4,5.8-4,9.9
		c0,4.1,1.3,7.4,4,9.9c2.7,2.5,5.7,3.8,9.2,3.8C409.5,180.4,412.5,179.1,415.1,176.6z"/>
	<path id="XMLID_133_" class="st0" d="M483.7,147.7c3.4,3.6,5.1,8.2,5.1,13.9v28h-12.1v-25.4c0-3.3-0.8-5.9-2.5-7.8
		c-1.7-2-3.9-2.9-6.8-2.9c-7.6,0-11.4,5.3-11.4,15.8v20.3h-12.1v-45.9h12.1v4.1c3.7-3.7,8.5-5.5,14.4-5.5
		C475.8,142.3,480.3,144.1,483.7,147.7z"/>
	<path id="XMLID_135_" class="st0" d="M516,124.9c1.4,1.4,2.1,3.1,2.1,5.1c0,2-0.7,3.7-2.1,5.1c-1.4,1.3-3.2,2-5.2,2
		c-2.1,0-3.9-0.7-5.3-2c-1.4-1.3-2.1-3-2.1-5.1c0-2,0.7-3.7,2.1-5.1c1.4-1.4,3.2-2.2,5.2-2.2C512.9,122.7,514.6,123.5,516,124.9z
		 M504.7,189.6v-45.9h12.1v45.9H504.7z"/>
	<path id="XMLID_141_" class="st0" d="M580.2,189.6h-12.1V186c-4.1,3.3-9.2,5-15.2,5c-6.1,0-11.3-2.3-15.8-6.9
		c-4.5-4.6-6.7-10.4-6.7-17.4c0-7,2.3-12.8,6.8-17.4s9.8-6.9,15.8-6.9c6.1,0,11.1,1.7,15.2,5.1v-3.7h12.1V189.6z M564.1,176.6
		c2.6-2.5,4-5.8,4-9.9c0-4-1.3-7.4-4-9.9c-2.6-2.6-5.7-3.9-9.1-3.9c-3.7,0-6.8,1.3-9.2,3.8c-2.4,2.5-3.6,5.9-3.6,10
		c0,4.2,1.2,7.5,3.6,10c2.4,2.5,5.5,3.7,9.2,3.7C558.5,180.4,561.5,179.1,564.1,176.6z"/>
	<path id="XMLID_144_" class="st0" d="M628.6,143.4l-0.6,11.7h-2.7c-10.9,0-16.4,6.6-16.4,19.7v14.8h-12.1v-45.9H609v8.4
		c4.2-6,9.7-9,16.5-9C626.8,143.1,627.9,143.2,628.6,143.4z"/>
	<path id="XMLID_146_" class="st0" d="M682.8,169.9h-35c0.6,3.3,2,5.8,4.1,7.8c2.1,1.9,4.6,2.9,7.4,2.9c5.2,0,9-2,11.4-6.1l10.9,2.3
		c-2,4.7-4.9,8.2-8.7,10.6c-3.9,2.4-8.4,3.6-13.5,3.6c-6.6,0-12.2-2.3-16.7-6.8c-4.5-4.5-6.8-10.4-6.8-17.5c0-7.1,2.3-13,6.9-17.5
		c4.6-4.6,10.2-6.9,16.9-6.9c6.3,0,11.6,2.2,16.1,6.6c4.5,4.4,6.9,10,7.1,16.9V169.9z M652.5,155.1c-2.2,1.5-3.6,3.6-4.3,6.3h22.2
		c-0.7-2.8-2.1-4.9-4-6.3c-2-1.4-4.2-2.1-6.8-2.1C657,152.9,654.7,153.7,652.5,155.1z"/>
	<path id="XMLID_149_" class="st0" d="M728,189.6l-18-17.9h-2.1v17.9h-12.1v-66.2h12.1v36.3h2.2l16.5-16h15.3l-22.2,22l24.6,23.9
		H728z"/>
</g>
<path id="XMLID_19_" class="st0" d="M235.6,75.6C235.6,75.6,235.6,75.6,235.6,75.6C221,21.3,165-11.1,110.7,3.5
	c-52.1,14-84,66.2-73.6,118.4c0.4,2.2,0.9,4.4,1.5,6.5c0,0,0,0,0,0c1.9,7.2,4.6,14.2,8.1,20.8c1.5,2.9,5.2,4.1,8.1,2.6
	c2.9-1.5,4.1-5.2,2.6-8.1c-3-5.8-5.4-12-7.1-18.3c0-0.1-0.1-0.3-0.1-0.4c-0.6-2.1-1-4.2-1.4-6.4C40,72.8,68.1,27.3,113.8,15.1
	C161.7,2.2,211.1,30.8,224,78.7c0.1,0.3,0.2,0.6,0.2,0.9c12.2,47.6-16.3,96.5-63.9,109.3c-31.2,8.4-64.8-0.8-87.5-23.8
	c-2.3-2.4-6.1-2.4-8.5-0.1c-2.4,2.3-2.4,6.1-0.1,8.5c25.7,26.1,63.7,36.5,99.1,27c8.8-2.4,17-5.8,24.6-10.2
	C227,167.9,247.8,121.2,235.6,75.6z"/>
<linearGradient id="XMLID_20_" gradientUnits="userSpaceOnUse" x1="0.8397" y1="114.9226" x2="143.2809" y2="114.9226" gradientTransform="matrix(0.866 -0.5 0.5 0.866 -34.3708 86.672)">
	<stop  offset="0" style="stop-color:#00CCFF"/>
	<stop  offset="1" style="stop-color:#9900FF"/>
</linearGradient>
<path id="XMLID_60_" class="st1" d="M164.5,165.2c0,0-2.6,0.6-7,1.7c-2.3,0.5-5.1,1.1-8.3,1.8c-3.2,0.6-6.8,1.4-10.8,2.1
	c-2,0.4-4,0.7-6.2,1.1c-2.1,0.3-4.4,0.7-6.7,1c-4.6,0.7-9.4,1.3-14.4,1.8c-2.5,0.2-5.1,0.5-7.7,0.7c-1.3,0.1-2.6,0.2-3.9,0.3
	c-1.3,0.1-2.6,0.1-4,0.2c-5.3,0.3-10.7,0.4-16.1,0.4c-5.4-0.1-10.8-0.3-16.2-0.7c-5.3-0.5-10.6-1-15.7-2c-5.1-0.9-10-2-14.5-3.4
	c-4.6-1.4-8.9-3-12.7-5c-3.8-2-7.3-4.2-10.1-6.6c-2.8-2.5-5-4.9-6.5-7.4c-0.4-0.6-0.7-1.1-1-1.7c-0.3-0.6-0.5-1.1-0.8-1.6
	c-0.2-0.5-0.4-1-0.6-1.4c-0.1-0.4-0.3-0.8-0.4-1.2c-0.5-1.4-0.7-2.2-0.7-2.2c-0.8-2.6,0.6-5.4,3.2-6.3c2.5-0.8,5.2,0.5,6.2,3
	l0.3,0.7c0,0,0.2,0.5,0.5,1.4c0.1,0.2,0.2,0.5,0.3,0.7c0.1,0.3,0.3,0.5,0.5,0.8c0.2,0.3,0.3,0.6,0.5,1c0.2,0.3,0.5,0.7,0.7,1.1
	c1,1.5,2.6,3.2,4.7,4.9c2.1,1.7,4.9,3.3,8.1,4.9c3.2,1.5,7,2.8,11.1,3.9c4.1,1.1,8.6,2,13.2,2.6c4.7,0.7,9.6,1,14.6,1.3
	c5,0.2,10.1,0.2,15.3,0.1c5.1-0.2,10.3-0.4,15.3-0.9c1.3-0.1,2.5-0.2,3.8-0.3c1.2-0.1,2.5-0.3,3.7-0.4c2.5-0.3,4.9-0.6,7.3-0.9
	c4.8-0.6,9.4-1.4,13.8-2.2c2.2-0.4,4.3-0.8,6.3-1.2c2-0.4,4-0.8,5.9-1.2c3.8-0.8,7.2-1.6,10.3-2.4c3-0.8,5.7-1.5,7.8-2
	c4.4-1.2,7-1.9,7-1.9c4.3-1.2,8.7,1.3,9.8,5.6s-1.3,8.7-5.6,9.8C164.7,165.1,164.6,165.1,164.5,165.2z"/>
<linearGradient id="XMLID_21_" gradientUnits="userSpaceOnUse" x1="18.6266" y1="102.8656" x2="255.5095" y2="102.8656">
	<stop  offset="0" style="stop-color:#00CCFF"/>
	<stop  offset="1" style="stop-color:#9900FF"/>
</linearGradient>
<path id="XMLID_33_" class="st2" d="M254.9,70.4c-1.8-6.6-8.3-15.1-29.1-18.7c2.5,4.4,4.7,9,6.5,13.9c6.2,2,10.1,4.8,10.9,7.9
	c1.3,4.7-4.2,14.5-23.6,26.8c-18.9,11.9-45.5,21.8-74.9,29.7c-29.4,7.9-57.8,12.7-80.2,11.8c-23-0.9-32.6-6.7-33.8-11.4
	c-0.8-3.1,1.2-7.5,5.6-12.3c-0.8-5.1-1.3-10.2-1.3-15.3c-16.3,13.5-17.6,24.2-15.8,30.7c3.3,12.2,18.8,19.2,45,20.2
	c23.5,0.9,53.3-3.1,83.7-11.2c27.6-7.4,53-17.5,72.3-28.6c2-1.2,4-2.3,5.8-3.5C248.2,96.5,258.2,82.7,254.9,70.4z"/>
</svg>
